<svg xmlns="http://www.w3.org/2000/svg" xmlns:xlink="http://www.w3.org/1999/xlink" width="3913" height="1755" zoomAndPan="magnify" viewBox="0 0 1440 307.499996"  preserveAspectRatio="xMidYMid meet" version="1.0"><defs><g/><clipPath id="f675354702"><path d="M 628 121.769531 L 652 121.769531 L 652 156 L 628 156 Z M 628 121.769531 " clip-rule="nonzero"/></clipPath><clipPath id="51ce73cf65"><path d="M 601 121.769531 L 646 121.769531 L 646 136 L 601 136 Z M 601 121.769531 " clip-rule="nonzero"/></clipPath><clipPath id="1e96a7dbae"><path d="M 655 121.769531 L 682 121.769531 L 682 136 L 655 136 Z M 655 121.769531 " clip-rule="nonzero"/></clipPath><clipPath id="36f6a5b36b"><path d="M 597.199219 136.515625 L 686.105469 136.515625 L 686.105469 185.226562 L 597.199219 185.226562 Z M 597.199219 136.515625 " clip-rule="nonzero"/></clipPath><clipPath id="89fde4d25a"><path d="M 0.367188 13 L 18 13 L 18 35 L 0.367188 35 Z M 0.367188 13 " clip-rule="nonzero"/></clipPath><clipPath id="3146b75f04"><rect x="0" width="174" y="0" height="48"/></clipPath><clipPath id="61ad9018e9"><rect x="0" width="76" y="0" height="12"/></clipPath></defs><g clip-path="url(#f675354702)"><path fill="#ffffff" d="M 644.183594 147.457031 L 651.726562 121.867188 L 638.347656 121.867188 L 628.511719 155.25 C 633.175781 152.554688 638.453125 149.917969 644.183594 147.457031 " fill-opacity="1" fill-rule="nonzero"/></g><path fill="#ffffff" d="M 626.371094 162.519531 L 621.292969 179.753906 L 634.671875 179.753906 L 642.722656 152.429688 C 636.375 155.707031 630.832031 159.140625 626.371094 162.519531 " fill-opacity="1" fill-rule="nonzero"/><g clip-path="url(#51ce73cf65)"><path fill="#ffffff" d="M 645.769531 121.769531 L 615.089844 121.769531 C 607.703125 121.769531 601.714844 127.757812 601.714844 135.148438 L 641.832031 135.148438 L 645.769531 121.769531 " fill-opacity="1" fill-rule="nonzero"/></g><g clip-path="url(#1e96a7dbae)"><path fill="#ffffff" d="M 659.148438 121.769531 L 655.207031 135.148438 L 668.273438 135.148438 C 675.660156 135.148438 681.648438 129.15625 681.648438 121.769531 L 659.148438 121.769531 " fill-opacity="1" fill-rule="nonzero"/></g><g clip-path="url(#36f6a5b36b)"><path fill="#ffffff" d="M 604.621094 181.730469 C 601.234375 172.507812 622.703125 156.148438 652.570312 145.191406 C 664.6875 140.742188 676.328125 137.867188 686.105469 136.636719 C 675.375 136.28125 659.652344 139.277344 642.957031 145.402344 C 614.691406 155.777344 594.351562 171.195312 597.527344 179.84375 C 598.605469 182.789062 602.277344 184.570312 607.765625 185.226562 C 606.214844 184.308594 605.140625 183.144531 604.621094 181.730469 " fill-opacity="1" fill-rule="nonzero"/></g><g transform="matrix(1, 0, 0, 1, 665, 131)"><g clip-path="url(#3146b75f04)"><g clip-path="url(#89fde4d25a)"><g fill="#ffffff" fill-opacity="1"><g transform="translate(0.506393, 34.4463)"><g><path d="M 6.265625 0 L 6.265625 -16.40625 L 0.484375 -16.40625 L 0.484375 -20.90625 L 17.359375 -20.90625 L 17.359375 -16.40625 L 11.546875 -16.40625 L 11.546875 0 Z M 6.265625 0 "/></g></g></g></g><g fill="#ffffff" fill-opacity="1"><g transform="translate(18.316336, 34.4463)"><g><path d="M 13.921875 0 L 11.1875 -7.328125 L 7.5 -7.328125 L 7.5 0 L 2.21875 0 L 2.21875 -20.90625 L 12.25 -20.90625 C 14.175781 -20.90625 15.628906 -20.632812 16.609375 -20.09375 C 17.585938 -19.5625 18.234375 -18.820312 18.546875 -17.875 C 18.867188 -16.9375 19.03125 -15.675781 19.03125 -14.09375 C 19.03125 -12.632812 18.84375 -11.367188 18.46875 -10.296875 C 18.09375 -9.222656 17.347656 -8.445312 16.234375 -7.96875 L 19.453125 0 Z M 10.234375 -11.515625 C 11.328125 -11.515625 12.101562 -11.570312 12.5625 -11.6875 C 13.019531 -11.8125 13.316406 -12.039062 13.453125 -12.375 C 13.597656 -12.71875 13.671875 -13.285156 13.671875 -14.078125 C 13.671875 -14.878906 13.609375 -15.445312 13.484375 -15.78125 C 13.367188 -16.125 13.082031 -16.351562 12.625 -16.46875 C 12.164062 -16.59375 11.390625 -16.65625 10.296875 -16.65625 L 7.5 -16.65625 L 7.5 -11.515625 Z M 10.234375 -11.515625 "/></g></g></g><g fill="#ffffff" fill-opacity="1"><g transform="translate(38.952775, 34.4463)"><g><path d="M 15.40625 0 L 14.15625 -3.953125 L 6.71875 -3.953125 L 5.53125 0 L 0.25 0 L 6.921875 -20.90625 L 14.09375 -20.90625 L 20.78125 0 Z M 10.484375 -16.234375 L 10.328125 -16.234375 L 7.9375 -8.234375 L 12.921875 -8.234375 Z M 10.484375 -16.234375 "/></g></g></g><g fill="#ffffff" fill-opacity="1"><g transform="translate(59.984317, 34.4463)"><g><path d="M 9.875 0.25 C 6.914062 0.25 4.289062 0.0703125 2 -0.28125 L 2 -4.40625 C 4.476562 -4.164062 6.566406 -4.046875 8.265625 -4.046875 C 9.253906 -4.046875 10.007812 -4.082031 10.53125 -4.15625 C 11.0625 -4.238281 11.441406 -4.375 11.671875 -4.5625 C 11.867188 -4.71875 11.992188 -4.910156 12.046875 -5.140625 C 12.097656 -5.378906 12.125 -5.710938 12.125 -6.140625 C 12.125 -6.648438 12.082031 -7.015625 12 -7.234375 C 11.914062 -7.453125 11.753906 -7.609375 11.515625 -7.703125 C 11.273438 -7.796875 10.847656 -7.882812 10.234375 -7.96875 L 6.375 -8.453125 C 5 -8.609375 3.953125 -8.953125 3.234375 -9.484375 C 2.515625 -10.023438 2.023438 -10.722656 1.765625 -11.578125 C 1.515625 -12.429688 1.390625 -13.492188 1.390625 -14.765625 C 1.390625 -16.566406 1.722656 -17.929688 2.390625 -18.859375 C 3.066406 -19.796875 3.96875 -20.410156 5.09375 -20.703125 C 6.21875 -21.003906 7.648438 -21.15625 9.390625 -21.15625 C 10.671875 -21.15625 11.84375 -21.101562 12.90625 -21 C 13.96875 -20.894531 15.125 -20.734375 16.375 -20.515625 L 16.375 -16.46875 C 13.96875 -16.726562 11.992188 -16.859375 10.453125 -16.859375 C 8.828125 -16.859375 7.773438 -16.738281 7.296875 -16.5 C 7.035156 -16.375 6.867188 -16.203125 6.796875 -15.984375 C 6.722656 -15.765625 6.6875 -15.453125 6.6875 -15.046875 C 6.6875 -14.535156 6.722656 -14.171875 6.796875 -13.953125 C 6.867188 -13.742188 7.019531 -13.59375 7.25 -13.5 C 7.476562 -13.414062 7.890625 -13.332031 8.484375 -13.25 L 12.921875 -12.703125 C 13.804688 -12.597656 14.535156 -12.414062 15.109375 -12.15625 C 15.691406 -11.894531 16.175781 -11.445312 16.5625 -10.8125 C 17.144531 -9.945312 17.4375 -8.5625 17.4375 -6.65625 C 17.4375 -4.664062 17.125 -3.171875 16.5 -2.171875 C 15.875 -1.171875 15.035156 -0.515625 13.984375 -0.203125 C 12.929688 0.0976562 11.5625 0.25 9.875 0.25 Z M 9.875 0.25 "/></g></g></g><g fill="#ffffff" fill-opacity="1"><g transform="translate(78.827604, 34.4463)"><g><path d="M 2.21875 0 L 2.21875 -20.90625 L 17.046875 -20.90625 L 17.046875 -16.625 L 7.5 -16.625 L 7.5 -12.703125 L 15.59375 -12.703125 L 15.59375 -8.421875 L 7.5 -8.421875 L 7.5 -4.28125 L 17.046875 -4.28125 L 17.046875 0 Z M 2.21875 0 "/></g></g></g><g fill="#ffffff" fill-opacity="1"><g transform="translate(97.51893, 34.4463)"><g><path d="M 15.40625 0 L 14.15625 -3.953125 L 6.71875 -3.953125 L 5.53125 0 L 0.25 0 L 6.921875 -20.90625 L 14.09375 -20.90625 L 20.78125 0 Z M 10.484375 -16.234375 L 10.328125 -16.234375 L 7.9375 -8.234375 L 12.921875 -8.234375 Z M 10.484375 -16.234375 "/></g></g></g><g fill="#ffffff" fill-opacity="1"><g transform="translate(118.550472, 34.4463)"><g><path d="M 2.21875 0 L 2.21875 -20.90625 L 7.5 -20.90625 L 7.5 -4.5 L 15.796875 -4.5 L 15.796875 0 Z M 2.21875 0 "/></g></g></g><g fill="#ffffff" fill-opacity="1"><g transform="translate(135.053544, 34.4463)"><g><path d="M 2.21875 0 L 2.21875 -20.90625 L 7.5 -20.90625 L 7.5 -4.5 L 15.796875 -4.5 L 15.796875 0 Z M 2.21875 0 "/></g></g></g><g fill="#ffffff" fill-opacity="1"><g transform="translate(151.556616, 34.4463)"><g><path d="M 15.40625 0 L 14.15625 -3.953125 L 6.71875 -3.953125 L 5.53125 0 L 0.25 0 L 6.921875 -20.90625 L 14.09375 -20.90625 L 20.78125 0 Z M 10.484375 -16.234375 L 10.328125 -16.234375 L 7.9375 -8.234375 L 12.921875 -8.234375 Z M 10.484375 -16.234375 "/></g></g></g></g></g><g transform="matrix(1, 0, 0, 1, 671, 171)"><g clip-path="url(#61ad9018e9)"><g fill="#ffffff" fill-opacity="1"><g transform="translate(0.80184, 8.075251)"><g><path d="M 3.5625 -5.265625 L 3.5625 -4.71875 L 1.265625 -4.71875 L 1.265625 -2.9375 L 3.125 -2.9375 L 3.125 -2.375 L 1.265625 -2.375 L 1.265625 0 L 0.578125 0 L 0.578125 -5.265625 Z M 3.5625 -5.265625 "/></g></g></g><g fill="#ffffff" fill-opacity="1"><g transform="translate(6.125851, 8.075251)"><g><path d="M 1.25 -5.265625 L 1.25 -1.9375 C 1.25 -1.46875 1.363281 -1.117188 1.59375 -0.890625 C 1.820312 -0.660156 2.144531 -0.546875 2.5625 -0.546875 C 2.957031 -0.546875 3.269531 -0.660156 3.5 -0.890625 C 3.726562 -1.117188 3.84375 -1.46875 3.84375 -1.9375 L 3.84375 -5.265625 L 4.53125 -5.265625 L 4.53125 -1.9375 C 4.53125 -1.5 4.441406 -1.128906 4.265625 -0.828125 C 4.097656 -0.535156 3.863281 -0.316406 3.5625 -0.171875 C 3.257812 -0.0234375 2.921875 0.046875 2.546875 0.046875 C 2.171875 0.046875 1.832031 -0.0234375 1.53125 -0.171875 C 1.238281 -0.316406 1.003906 -0.535156 0.828125 -0.828125 C 0.648438 -1.128906 0.5625 -1.5 0.5625 -1.9375 L 0.5625 -5.265625 Z M 1.25 -5.265625 "/></g></g></g><g fill="#ffffff" fill-opacity="1"><g transform="translate(12.742595, 8.075251)"><g><path d="M 3.828125 -5.265625 L 3.828125 -4.71875 L 2.390625 -4.71875 L 2.390625 0 L 1.703125 0 L 1.703125 -4.71875 L 0.25 -4.71875 L 0.25 -5.265625 Z M 3.828125 -5.265625 "/></g></g></g><g fill="#ffffff" fill-opacity="1"><g transform="translate(18.346315, 8.075251)"><g><path d="M 1.25 -5.265625 L 1.25 -1.9375 C 1.25 -1.46875 1.363281 -1.117188 1.59375 -0.890625 C 1.820312 -0.660156 2.144531 -0.546875 2.5625 -0.546875 C 2.957031 -0.546875 3.269531 -0.660156 3.5 -0.890625 C 3.726562 -1.117188 3.84375 -1.46875 3.84375 -1.9375 L 3.84375 -5.265625 L 4.53125 -5.265625 L 4.53125 -1.9375 C 4.53125 -1.5 4.441406 -1.128906 4.265625 -0.828125 C 4.097656 -0.535156 3.863281 -0.316406 3.5625 -0.171875 C 3.257812 -0.0234375 2.921875 0.046875 2.546875 0.046875 C 2.171875 0.046875 1.832031 -0.0234375 1.53125 -0.171875 C 1.238281 -0.316406 1.003906 -0.535156 0.828125 -0.828125 C 0.648438 -1.128906 0.5625 -1.5 0.5625 -1.9375 L 0.5625 -5.265625 Z M 1.25 -5.265625 "/></g></g></g><g fill="#ffffff" fill-opacity="1"><g transform="translate(24.963059, 8.075251)"><g><path d="M 3.359375 0 L 2.109375 -2.15625 L 1.265625 -2.15625 L 1.265625 0 L 0.578125 0 L 0.578125 -5.265625 L 2.28125 -5.265625 C 2.675781 -5.265625 3.007812 -5.195312 3.28125 -5.0625 C 3.5625 -4.925781 3.769531 -4.742188 3.90625 -4.515625 C 4.039062 -4.285156 4.109375 -4.019531 4.109375 -3.71875 C 4.109375 -3.351562 4.003906 -3.03125 3.796875 -2.75 C 3.585938 -2.476562 3.273438 -2.296875 2.859375 -2.203125 L 4.1875 0 Z M 1.265625 -2.703125 L 2.28125 -2.703125 C 2.65625 -2.703125 2.9375 -2.796875 3.125 -2.984375 C 3.3125 -3.171875 3.40625 -3.414062 3.40625 -3.71875 C 3.40625 -4.03125 3.3125 -4.269531 3.125 -4.4375 C 2.9375 -4.613281 2.65625 -4.703125 2.28125 -4.703125 L 1.265625 -4.703125 Z M 1.265625 -2.703125 "/></g></g></g><g fill="#ffffff" fill-opacity="1"><g transform="translate(31.073291, 8.075251)"><g><path d="M 1.265625 -4.71875 L 1.265625 -2.953125 L 3.1875 -2.953125 L 3.1875 -2.375 L 1.265625 -2.375 L 1.265625 -0.5625 L 3.421875 -0.5625 L 3.421875 0 L 0.578125 0 L 0.578125 -5.28125 L 3.421875 -5.28125 L 3.421875 -4.71875 Z M 1.265625 -4.71875 "/></g></g></g><g fill="#ffffff" fill-opacity="1"><g transform="translate(36.465339, 8.075251)"><g/></g></g><g fill="#ffffff" fill-opacity="1"><g transform="translate(39.997666, 8.075251)"><g><path d="M 3.828125 -5.265625 L 3.828125 -4.71875 L 2.390625 -4.71875 L 2.390625 0 L 1.703125 0 L 1.703125 -4.71875 L 0.25 -4.71875 L 0.25 -5.265625 Z M 3.828125 -5.265625 "/></g></g></g><g fill="#ffffff" fill-opacity="1"><g transform="translate(45.601386, 8.075251)"><g><path d="M 3.359375 0 L 2.109375 -2.15625 L 1.265625 -2.15625 L 1.265625 0 L 0.578125 0 L 0.578125 -5.265625 L 2.28125 -5.265625 C 2.675781 -5.265625 3.007812 -5.195312 3.28125 -5.0625 C 3.5625 -4.925781 3.769531 -4.742188 3.90625 -4.515625 C 4.039062 -4.285156 4.109375 -4.019531 4.109375 -3.71875 C 4.109375 -3.351562 4.003906 -3.03125 3.796875 -2.75 C 3.585938 -2.476562 3.273438 -2.296875 2.859375 -2.203125 L 4.1875 0 Z M 1.265625 -2.703125 L 2.28125 -2.703125 C 2.65625 -2.703125 2.9375 -2.796875 3.125 -2.984375 C 3.3125 -3.171875 3.40625 -3.414062 3.40625 -3.71875 C 3.40625 -4.03125 3.3125 -4.269531 3.125 -4.4375 C 2.9375 -4.613281 2.65625 -4.703125 2.28125 -4.703125 L 1.265625 -4.703125 Z M 1.265625 -2.703125 "/></g></g></g><g fill="#ffffff" fill-opacity="1"><g transform="translate(51.711618, 8.075251)"><g><path d="M 3.703125 -1.171875 L 1.40625 -1.171875 L 0.96875 0 L 0.25 0 L 2.15625 -5.234375 L 2.953125 -5.234375 L 4.84375 0 L 4.125 0 Z M 3.5 -1.734375 L 2.546875 -4.390625 L 1.59375 -1.734375 Z M 3.5 -1.734375 "/></g></g></g><g fill="#ffffff" fill-opacity="1"><g transform="translate(58.320801, 8.075251)"><g><path d="M 4.9375 -5.265625 L 2.953125 0 L 2.15625 0 L 0.171875 -5.265625 L 0.90625 -5.265625 L 2.5625 -0.71875 L 4.21875 -5.265625 Z M 4.9375 -5.265625 "/></g></g></g><g fill="#ffffff" fill-opacity="1"><g transform="translate(64.945106, 8.075251)"><g><path d="M 1.265625 -4.71875 L 1.265625 -2.953125 L 3.1875 -2.953125 L 3.1875 -2.375 L 1.265625 -2.375 L 1.265625 -0.5625 L 3.421875 -0.5625 L 3.421875 0 L 0.578125 0 L 0.578125 -5.28125 L 3.421875 -5.28125 L 3.421875 -4.71875 Z M 1.265625 -4.71875 "/></g></g></g><g fill="#ffffff" fill-opacity="1"><g transform="translate(70.337154, 8.075251)"><g><path d="M 1.265625 -0.5625 L 3.109375 -0.5625 L 3.109375 0 L 0.578125 0 L 0.578125 -5.265625 L 1.265625 -5.265625 Z M 1.265625 -0.5625 "/></g></g></g></g></g></svg>